<?xml version="1.0" encoding="utf-8"?>
<!-- Generator: Adobe Illustrator 22.1.0, SVG Export Plug-In . SVG Version: 6.00 Build 0)  -->
<svg version="1.2" baseProfile="tiny" id="Слой_1"
	 xmlns="http://www.w3.org/2000/svg" xmlns:xlink="http://www.w3.org/1999/xlink" x="0px" y="0px" viewBox="0 0 167 83"
	 xml:space="preserve">
<g>
	<rect fill="#222831" width="167" height="83"/>
	<g>
		<path fill="#F9FFEE" d="M30.6,26.8c0.1,0.1,0.1,0.1,0.1,0.2v14.8c0,0.1,0,0.1-0.1,0.2c0,0-0.1,0.1-0.1,0.1l-8.6,2v13.4l0.5,0.3
			c0,0,0.1,0.1,0.1,0.1c0,0,0,0.1,0,0.1V58l-0.4,1.4c0,0.1-0.1,0.1-0.1,0.2c0,0-0.1,0.1-0.1,0.1h-5.7c0,0-0.1,0-0.2-0.1
			c-0.1,0-0.1-0.1-0.1-0.2L15.7,58v-0.1c0,0,0-0.1,0-0.1s0.1-0.1,0.1-0.1l0.5-0.3V26.2l-0.5-0.3l-0.1-0.1v-0.2l0.4-1.4
			c0-0.1,0-0.1,0.1-0.2c0.1,0,0.1-0.1,0.2-0.1h11.3c0.1,0,0.1,0,0.2,0.1L30.6,26.8z M21.9,29.4v8.9l3.3-0.6v-8.3H21.9z"/>
		<path fill="#F9FFEE" d="M47.3,31.1c0,0,0.1,0.1,0.1,0.2v25.3c0,0.1,0,0.1-0.1,0.2l-2.8,2.8c0,0-0.1,0.1-0.2,0.1h-9.1
			c-0.1,0-0.2,0-0.2-0.1l-2.8-2.8c0,0-0.1-0.1-0.1-0.2V31.3c0-0.1,0-0.1,0.1-0.2l2.8-2.8c0-0.1,0.1-0.1,0.2-0.1h9.1
			c0.1,0,0.2,0,0.2,0.1L47.3,31.1z M37.5,33.7v20.5h4.4V33.7H37.5z"/>
		<path fill="#F9FFEE" d="M63.5,31c0,0.1,0.1,0.1,0.1,0.2V45c0,0,0,0.1-0.1,0.1s-0.1,0.1-0.2,0.1l-8.6,2v10.2l0.5,0.3
			c0.1,0,0.1,0.1,0.1,0.1l0,0.1l0,0.1l-0.3,1.4c0,0-0.1,0.1-0.1,0.1c0,0-0.1,0.1-0.2,0.1h-5.6c-0.1,0-0.1,0-0.2-0.1
			c0,0-0.1-0.1-0.1-0.1L48.6,58c0-0.1,0-0.1,0-0.2c0-0.1,0.1-0.1,0.1-0.1l0.6-0.3V30.4l-0.6-0.3c0,0-0.1-0.1-0.1-0.2s0-0.1,0-0.2
			l0.4-1.4c0-0.1,0.1-0.1,0.1-0.2c0,0,0.1-0.1,0.2-0.1h11.2c0.1,0,0.1,0,0.2,0.1L63.5,31z M58.1,40.9v-7.2h-3.3v7.9L58.1,40.9z"/>
		<path fill="#F9FFEE" d="M81.5,25.9l-0.5,0.3v30.4c0,0.1,0,0.1-0.1,0.2l-2.8,2.8c-0.1,0-0.1,0.1-0.2,0.1h-9.1c-0.1,0-0.1,0-0.2-0.1
			l-2.8-2.8c-0.1,0-0.1-0.1-0.1-0.2V26.2l-0.5-0.3c0,0-0.1-0.1-0.1-0.1c0,0,0-0.1,0-0.1v0l0.4-1.4c0-0.1,0.1-0.1,0.1-0.2
			c0,0,0.1-0.1,0.1-0.1h5.7c0,0,0.1,0,0.2,0.1c0.1,0,0.1,0.1,0.1,0.2l0.4,1.4l0,0.1l0,0.1l-0.1,0.1l-0.5,0.3v28h4.4v-28l-0.5-0.3
			c-0.1,0-0.1-0.1-0.1-0.1c0,0,0-0.1,0-0.1v-0.1l0.3-1.4c0-0.1,0.1-0.1,0.1-0.2c0,0,0.1-0.1,0.2-0.1H81c0.1,0,0.1,0,0.2,0.1
			c0,0,0.1,0.1,0.1,0.2l0.3,1.4l0,0.1l0,0.1C81.6,25.8,81.5,25.9,81.5,25.9z"/>
		<path fill="#F9FFEE" d="M97.9,31c0,0.1,0.1,0.1,0.1,0.2V45c0,0,0,0.1-0.1,0.1s-0.1,0.1-0.2,0.1l-8.6,2v10.2l0.5,0.3
			c0.1,0,0.1,0.1,0.1,0.1l0,0.1l0,0.1l-0.3,1.4c0,0-0.1,0.1-0.1,0.1c0,0-0.1,0.1-0.2,0.1h-5.6c-0.1,0-0.1,0-0.2-0.1
			c0,0-0.1-0.1-0.1-0.1L82.9,58c0-0.1,0-0.1,0-0.2c0-0.1,0.1-0.1,0.1-0.1l0.6-0.3V30.4l-0.6-0.3c0,0-0.1-0.1-0.1-0.2s0-0.1,0-0.2
			l0.4-1.4c0-0.1,0.1-0.1,0.1-0.2c0,0,0.1-0.1,0.2-0.1h11.2c0.1,0,0.1,0,0.2,0.1L97.9,31z M92.5,40.9v-7.2h-3.3v7.9L92.5,40.9z"/>
	</g>
	<g>
		<path fill="#EFBB35" d="M114.5,26.8c0,0.1,0.1,0.1,0.1,0.2v29.5c0,0.1,0,0.1-0.1,0.2l-2.8,2.8c-0.1,0-0.1,0.1-0.2,0.1h-9.1
			c-0.1,0-0.1,0-0.2-0.1l-2.8-2.8c-0.1,0-0.1-0.1-0.1-0.2V27.1c0-0.1,0-0.1,0.1-0.2l2.8-2.8c0,0,0.1-0.1,0.2-0.1h9.1
			c0.1,0,0.1,0,0.2,0.1L114.5,26.8z M109.1,54.2V29.4h-4.4v24.8H109.1z"/>
		<path fill="#EFBB35" d="M132.2,24.2v6c0,0.1,0,0.1-0.1,0.2c0,0-0.1,0.1-0.2,0.1l-1.4,0.4c0,0-0.1,0-0.2,0c-0.1,0-0.1-0.1-0.1-0.1
			l-0.6-1.3H122V38l5.1-1l0.3-0.6c0-0.1,0.1-0.1,0.2-0.1c0.1,0,0.1,0,0.2,0l1.4,0.4c0.1,0,0.1,0.1,0.2,0.1s0.1,0.1,0.1,0.2v5.6
			c0,0.1,0,0.1-0.1,0.2c0,0-0.1,0.1-0.2,0.1l-1.4,0.3h-0.2c0,0-0.1-0.1-0.1-0.1l-0.1-0.2l-5.4,1.1v13.6l0.5,0.3
			c0.1,0,0.1,0.1,0.1,0.1c0,0,0,0.1,0,0.1l0,0.1l-0.3,1.4c0,0-0.1,0.1-0.1,0.1c0,0-0.1,0.1-0.2,0.1h-5.6c-0.1,0-0.1,0-0.2-0.1
			c0,0-0.1-0.1-0.1-0.1l-0.3-1.4v-0.2c0,0,0.1-0.1,0.1-0.1l0.5-0.3V26.2l-0.5-0.3c-0.1,0-0.1-0.1-0.1-0.1c0,0,0-0.1,0-0.1v-0.1
			l0.3-1.4c0,0,0.1-0.1,0.1-0.1c0,0,0.1-0.1,0.2-0.1h15.5c0.1,0,0.1,0,0.2,0.1C132.1,24.1,132.2,24.1,132.2,24.2z"/>
		<path fill="#EFBB35" d="M149.8,24.2v6c0,0.1,0,0.1-0.1,0.2s-0.1,0.1-0.2,0.1l-1.4,0.4c0,0-0.1,0-0.2,0c-0.1,0-0.1-0.1-0.1-0.1
			l-0.6-1.3h-7.6V38l5.1-1l0.3-0.6c0-0.1,0.1-0.1,0.2-0.1c0.1,0,0.1,0,0.2,0l1.4,0.4c0.1,0,0.1,0.1,0.2,0.1s0.1,0.1,0.1,0.2v5.6
			c0,0.1,0,0.1-0.1,0.2c0,0-0.1,0.1-0.2,0.1l-1.4,0.3h-0.2c0,0-0.1-0.1-0.1-0.1l-0.1-0.2l-5.4,1.1v13.6l0.5,0.3
			c0.1,0,0.1,0.1,0.1,0.1c0,0,0,0.1,0,0.1l0,0.1l-0.3,1.4c0,0-0.1,0.1-0.1,0.1c0,0-0.1,0.1-0.2,0.1h-5.6c-0.1,0-0.1,0-0.2-0.1
			c0,0-0.1-0.1-0.1-0.1l-0.3-1.4v-0.2c0,0,0.1-0.1,0.1-0.1l0.5-0.3V26.2l-0.5-0.3c-0.1,0-0.1-0.1-0.1-0.1c0,0,0-0.1,0-0.1v-0.1
			l0.3-1.4c0,0,0.1-0.1,0.1-0.1s0.1-0.1,0.2-0.1h15.5c0.1,0,0.1,0,0.2,0.1C149.8,24.1,149.8,24.1,149.8,24.2z"/>
	</g>
</g>
</svg>
