<svg
xmlns:cc="http://creativecommons.org/ns#"
xmlns:rdf="http://www.w3.org/1999/02/22-rdf-syntax-ns#"
xmlns:svg="http://www.w3.org/2000/svg"
xmlns="http://www.w3.org/2000/svg"
id="svg1008"
version="1.1"
class="store_links__logo"
viewBox="0 0 87.418564 81.96698">
	<path
	style="fill: #F9FFEE;fill-opacity:0.5"
	id="path982"
	d="m 79.616,26.826915 c -1.684,-4.052 -5.1,-8.427 -7.775,-9.81 a 40.266,40.266 0 0 1 3.925,11.764 v 0.037 l 0.007,0.041 a 35.1,35.1 0 0 1 -1.206,26.158 c -4.442,9.531 -15.194,19.3 -32.024,18.825 -18.185,-0.515 -34.2,-14.009 -37.194,-31.683 -0.545,-2.787 0,-4.2 0.274,-6.465 A 28.876,28.876 0 0 0 5,41.041915 v 0.2 a 38.759,38.759 0 0 0 76.954,6.554 c 0.065,-0.5 0.118,-0.995 0.176,-1.5 a 39.857,39.857 0 0 0 -2.514,-19.469 z" />
	<path
	style="fill: #F9FFEE;fill-opacity:1"
	id="path984"
	d="m 79.616,26.826915 c -1.684,-4.052 -5.1,-8.427 -7.775,-9.81 a 40.266,40.266 0 0 1 3.925,11.764 v 0.037 l 0.007,0.041 a 35.1,35.1 0 0 1 -1.206,26.158 c -4.442,9.531 -15.194,19.3 -32.024,18.825 -18.185,-0.515 -34.2,-14.009 -37.194,-31.683 -0.545,-2.787 0,-4.2 0.274,-6.465 A 28.876,28.876 0 0 0 5,41.041915 v 0.2 a 38.759,38.759 0 0 0 76.954,6.554 c 0.065,-0.5 0.118,-0.995 0.176,-1.5 a 39.857,39.857 0 0 0 -2.514,-19.469 z" />
	<path
	style="fill: #F9FFEE;fill-opacity:0.4"
	id="path990"
	d="m 43.825,33.788915 c -0.064,0.964 -3.47,4.289 -4.661,4.289 -11.021,0 -12.81,6.667 -12.81,6.667 0.488,5.614 4.4,10.238 9.129,12.684 0.216,0.112 0.435,0.213 0.654,0.312 q 0.569,0.252 1.138,0.466 a 17.235,17.235 0 0 0 5.043,0.973 c 19.317,0.906 23.059,-23.1 9.119,-30.066 a 13.38,13.38 0 0 1 9.345,2.269 19.56,19.56 0 0 0 -16.982,-9.917 c -0.46,0 -0.91,0.038 -1.362,0.069 a 19.387,19.387 0 0 0 -10.666,4.111 c 0.591,0.5 1.258,1.168 2.663,2.553 2.63,2.591 9.375,5.275 9.39,5.59 z" />
	<path
	style="fill: #F9FFEE;fill-opacity:0.7"
	id="path992"
	d="m 29.965,24.356915 c 0.314,0.2 0.573,0.374 0.8,0.531 a 17.968,17.968 0 0 1 -0.109,-9.473 28.705,28.705 0 0 0 -9.329,7.21 c 0.189,-0.005 5.811,-0.106 8.638,1.732 z" />
	<path
	style="fill: #F9FFEE;fill-opacity:1"
	id="path994"
	d="m 5.354,42.158915 c 2.991,17.674 19.009,31.168 37.194,31.683 16.83,0.476 27.582,-9.294 32.024,-18.825 a 35.1,35.1 0 0 0 1.206,-26.158 v -0.037 c 0,-0.029 -0.006,-0.046 0,-0.037 l 0.007,0.065 c 1.375,8.977 -3.191,17.674 -10.329,23.555 l -0.022,0.05 c -13.908,11.327 -27.218,6.834 -29.912,5 q -0.282,-0.135 -0.564,-0.281 c -8.109,-3.876 -11.459,-11.264 -10.741,-17.6 a 9.953,9.953 0 0 1 -9.181,-5.775 14.618,14.618 0 0 1 14.249,-0.572 19.3,19.3 0 0 0 14.552,0.572 c -0.015,-0.315 -6.76,-3 -9.39,-5.59 -1.405,-1.385 -2.072,-2.052 -2.663,-2.553 a 11.587,11.587 0 0 0 -1,-0.758 c -0.23,-0.157 -0.489,-0.327 -0.8,-0.531 -2.827,-1.838 -8.449,-1.737 -8.635,-1.732 h -0.018 c -1.536,-1.947 -1.428,-8.367 -1.34,-9.708 a 6.928,6.928 0 0 0 -1.294,0.687 28.225,28.225 0 0 0 -3.788,3.245 33.845,33.845 0 0 0 -3.638,4.337 v 0.006 -0.007 a 32.733,32.733 0 0 0 -5.2,11.743 c -0.019,0.079 -1.396,6.099 -0.717,9.221 z" />
	<path
	style="fill: #F9FFEE;fill-opacity:1"
	id="path996"
	d="m 57.425,26.864915 a 21.1,21.1 0 0 1 3.6,4.7 c 0.213,0.161 0.412,0.321 0.581,0.476 8.787,8.1 4.183,19.55 3.84,20.365 7.138,-5.881 11.7,-14.578 10.329,-23.555 -4.384,-10.93 -11.815,-15.335 -17.884,-24.9270005 -0.307,-0.485 -0.614,-0.971 -0.913,-1.484 -0.171,-0.293 -0.308,-0.557 -0.427,-0.8 a 7.053,7.053 0 0 1 -0.578,-1.535 0.1,0.1 0 0 0 -0.088,-0.1 0.138,0.138 0 0 0 -0.073,0 c -0.005,0 -0.013,0.009 -0.019,0.011 -0.006,0.002 -0.019,0.011 -0.028,0.015 -1.499,0.711 -10.388,14.7860005 1.66,26.8340005 z" />
	<path
	style="fill: #F9FFEE;fill-opacity:1"
	id="path998"
	d="m 61.6,32.035915 c -0.169,-0.155 -0.368,-0.315 -0.581,-0.476 -0.079,-0.059 -0.157,-0.118 -0.241,-0.177 a 13.38,13.38 0 0 0 -9.345,-2.269 c 13.94,6.97 10.2,30.972 -9.119,30.066 a 17.235,17.235 0 0 1 -5.043,-0.973 q -0.569,-0.213 -1.138,-0.466 c -0.219,-0.1 -0.438,-0.2 -0.654,-0.312 l 0.027,0.017 c 2.694,1.839 16,6.332 29.912,-5 l 0.022,-0.05 c 0.347,-0.81 4.951,-12.263 -3.84,-20.36 z" />
	<path
	style="fill: #F9FFEE;fill-opacity:0.7"
	id="path1000"
	d="m 26.354,44.744915 c 0,0 1.789,-6.667 12.81,-6.667 1.191,0 4.6,-3.325 4.661,-4.289 a 19.3,19.3 0 0 1 -14.552,-0.572 14.618,14.618 0 0 0 -14.249,0.572 9.953,9.953 0 0 0 9.181,5.775 c -0.718,6.337 2.632,13.725 10.741,17.6 0.181,0.087 0.351,0.181 0.537,0.264 -4.733,-2.445 -8.641,-7.069 -9.129,-12.683 z" />
</svg>