<svg
    width="81"
    height="80"
    xmlns="http://www.w3.org/2000/svg"
    xmlns:xlink="http://www.w3.org/1999/xlink"
    class="store_links__logo"
    >
    <defs>
        <path d="M40.61 0C18.573 0 .71 17.863.71 39.902c0 21.399 16.845 38.86 37.997 39.852.633.031 1.266.047 1.902.047 10.215 0 19.532-3.84 26.59-10.153-4.676 3.102-10.144 4.887-15.988 4.887-9.5 0-18.012-4.715-23.734-12.148-4.41-5.207-7.27-12.907-7.465-21.547v-1.88c.195-8.64 3.054-16.339 7.465-21.546C33.199 9.984 41.71 5.27 51.21 5.27c5.844 0 11.316 1.785 15.992 4.886C60.18 3.875 50.918.04 40.762.004 40.71.004 40.66 0 40.609 0z" id="c" />
        <linearGradient x1="49.999%" y1="0%" x2="49.999%" y2="100%" id="d">
            <stop stop-color="#787e7c" offset="0%" />
            <stop stop-color="#d7ddd0" offset="100%" />
        </linearGradient>
        <path d="M.477 12.414c3.66-4.32 8.39-6.926 13.554-6.926 11.617 0 21.032 13.168 21.032 29.414 0 16.243-9.415 29.41-21.032 29.41-5.164 0-9.894-2.605-13.554-6.925C6.199 64.82 14.71 69.535 24.21 69.535c5.844 0 11.312-1.785 15.988-4.887 8.168-7.308 13.313-17.925 13.313-29.746 0-11.82-5.145-22.441-13.309-29.746C35.527 2.055 30.055.27 24.211.27 14.71.27 6.199 4.984.477 12.414" id="h" />
        <linearGradient x1="49.998%" y1="-.001%" x2="49.998%" y2="99.997%" id="i">
            <stop stop-color="#383e44" offset="0%" />
            <stop stop-color="#787e7c" offset="100%" />
        </linearGradient>
    </defs>
    <g fill="none" fill-rule="evenodd">
        <g mask="url(#b)">
            <mask id="e" fill="#fff">
                <use xlink:href="#c" />
            </mask>
            <path fill="url(#d)" fill-rule="nonzero" mask="url(#e)" d="M67.203 0H.711v79.8h66.492z" />
        </g>
        <g transform="translate(27 5)">
            <g mask="url(#g)">
                <mask id="j" fill="#fff">
                    <use xlink:href="#h" />
                </mask>
                <path fill="url(#i)" fill-rule="nonzero" mask="url(#j)" d="M53.512.27H.477v69.265h53.035z" />
            </g>
        </g>
    </g>
</svg>
